<mxfile host="app.diagrams.net" modified="2024-01-29T17:17:09.699Z" agent="Mozilla/5.0 (X11; Ubuntu; Linux x86_64; rv:121.0) Gecko/20100101 Firefox/121.0" etag="xLuoItQZdhY1QifmM2dI" version="23.0.2" type="device">
  <diagram name="Page-1" id="c7558073-3199-34d8-9f00-42111426c3f3">
    <mxGraphModel dx="2011" dy="659" grid="1" gridSize="10" guides="1" tooltips="1" connect="1" arrows="1" fold="1" page="1" pageScale="1" pageWidth="826" pageHeight="1169" background="none" math="0" shadow="0">
      <root>
        <mxCell id="0" />
        <mxCell id="1" parent="0" />
        <mxCell id="rQWUJJRmfmGj_TDPr7_M-102" style="edgeStyle=orthogonalEdgeStyle;rounded=0;orthogonalLoop=1;jettySize=auto;html=1;exitX=0.5;exitY=0;exitDx=0;exitDy=0;entryX=0.5;entryY=1;entryDx=0;entryDy=0;" edge="1" parent="1" source="rQWUJJRmfmGj_TDPr7_M-137" target="rQWUJJRmfmGj_TDPr7_M-98">
          <mxGeometry relative="1" as="geometry">
            <mxPoint x="-155" y="210" as="sourcePoint" />
            <Array as="points">
              <mxPoint x="190" y="170" />
              <mxPoint x="190" y="170" />
            </Array>
          </mxGeometry>
        </mxCell>
        <mxCell id="rQWUJJRmfmGj_TDPr7_M-105" value="&lt;div&gt;no_diag&lt;/div&gt;" style="edgeLabel;html=1;align=center;verticalAlign=middle;resizable=0;points=[];" vertex="1" connectable="0" parent="rQWUJJRmfmGj_TDPr7_M-102">
          <mxGeometry x="0.1898" y="-2" relative="1" as="geometry">
            <mxPoint x="7" y="2" as="offset" />
          </mxGeometry>
        </mxCell>
        <mxCell id="rQWUJJRmfmGj_TDPr7_M-103" style="edgeStyle=orthogonalEdgeStyle;rounded=0;orthogonalLoop=1;jettySize=auto;html=1;exitX=0.5;exitY=1;exitDx=0;exitDy=0;entryX=0.5;entryY=0;entryDx=0;entryDy=0;" edge="1" parent="1" target="rQWUJJRmfmGj_TDPr7_M-100">
          <mxGeometry relative="1" as="geometry">
            <mxPoint x="190" y="530" as="sourcePoint" />
            <mxPoint x="20" y="600" as="targetPoint" />
            <Array as="points">
              <mxPoint x="190" y="620" />
            </Array>
          </mxGeometry>
        </mxCell>
        <mxCell id="rQWUJJRmfmGj_TDPr7_M-106" value="&lt;div&gt;uploaded_diag&lt;/div&gt;" style="edgeLabel;html=1;align=center;verticalAlign=middle;resizable=0;points=[];" vertex="1" connectable="0" parent="rQWUJJRmfmGj_TDPr7_M-103">
          <mxGeometry x="-0.0154" y="-1" relative="1" as="geometry">
            <mxPoint x="1" y="21" as="offset" />
          </mxGeometry>
        </mxCell>
        <mxCell id="rQWUJJRmfmGj_TDPr7_M-98" value="refuted_hypothesis" style="rounded=1;whiteSpace=wrap;html=1;fillColor=#dae8fc;strokeColor=#6c8ebf;" vertex="1" parent="1">
          <mxGeometry x="130" y="110" width="120" height="30" as="geometry" />
        </mxCell>
        <mxCell id="rQWUJJRmfmGj_TDPr7_M-100" value="diag" style="rounded=1;whiteSpace=wrap;html=1;fillColor=#dae8fc;strokeColor=#6c8ebf;" vertex="1" parent="1">
          <mxGeometry x="130" y="630" width="120" height="30" as="geometry" />
        </mxCell>
        <mxCell id="rQWUJJRmfmGj_TDPr7_M-116" style="edgeStyle=orthogonalEdgeStyle;rounded=0;orthogonalLoop=1;jettySize=auto;html=1;" edge="1" parent="1" source="rQWUJJRmfmGj_TDPr7_M-108" target="rQWUJJRmfmGj_TDPr7_M-115">
          <mxGeometry relative="1" as="geometry" />
        </mxCell>
        <mxCell id="rQWUJJRmfmGj_TDPr7_M-117" value="&lt;div&gt;processed_fault_context&lt;/div&gt;" style="edgeLabel;html=1;align=center;verticalAlign=middle;resizable=0;points=[];" vertex="1" connectable="0" parent="rQWUJJRmfmGj_TDPr7_M-116">
          <mxGeometry x="-0.0238" y="-3" relative="1" as="geometry">
            <mxPoint as="offset" />
          </mxGeometry>
        </mxCell>
        <mxCell id="rQWUJJRmfmGj_TDPr7_M-108" value="&lt;font style=&quot;font-size: 11px;&quot;&gt;READ_FAULT_CONTEXT_AND_GEN_&lt;br&gt;ONTOLOGY_INSTANCES&lt;/font&gt;" style="ellipse;whiteSpace=wrap;html=1;" vertex="1" parent="1">
          <mxGeometry x="410" y="200" width="260" height="50" as="geometry" />
        </mxCell>
        <mxCell id="rQWUJJRmfmGj_TDPr7_M-114" style="edgeStyle=orthogonalEdgeStyle;rounded=0;orthogonalLoop=1;jettySize=auto;html=1;" edge="1" parent="1" source="rQWUJJRmfmGj_TDPr7_M-110" target="rQWUJJRmfmGj_TDPr7_M-108">
          <mxGeometry relative="1" as="geometry" />
        </mxCell>
        <mxCell id="rQWUJJRmfmGj_TDPr7_M-110" value="start" style="text;html=1;align=center;verticalAlign=middle;resizable=0;points=[];autosize=1;strokeColor=none;fillColor=none;" vertex="1" parent="1">
          <mxGeometry x="515" y="140" width="50" height="30" as="geometry" />
        </mxCell>
        <mxCell id="rQWUJJRmfmGj_TDPr7_M-119" style="edgeStyle=orthogonalEdgeStyle;rounded=0;orthogonalLoop=1;jettySize=auto;html=1;exitX=0.5;exitY=1;exitDx=0;exitDy=0;" edge="1" parent="1" source="rQWUJJRmfmGj_TDPr7_M-115" target="rQWUJJRmfmGj_TDPr7_M-118">
          <mxGeometry relative="1" as="geometry" />
        </mxCell>
        <mxCell id="rQWUJJRmfmGj_TDPr7_M-120" value="&lt;div&gt;selected_best_instance&lt;/div&gt;" style="edgeLabel;html=1;align=center;verticalAlign=middle;resizable=0;points=[];" vertex="1" connectable="0" parent="rQWUJJRmfmGj_TDPr7_M-119">
          <mxGeometry x="-0.0828" y="-1" relative="1" as="geometry">
            <mxPoint as="offset" />
          </mxGeometry>
        </mxCell>
        <mxCell id="rQWUJJRmfmGj_TDPr7_M-132" style="edgeStyle=orthogonalEdgeStyle;rounded=0;orthogonalLoop=1;jettySize=auto;html=1;exitX=0;exitY=0.5;exitDx=0;exitDy=0;" edge="1" parent="1" source="rQWUJJRmfmGj_TDPr7_M-115" target="rQWUJJRmfmGj_TDPr7_M-131">
          <mxGeometry relative="1" as="geometry" />
        </mxCell>
        <mxCell id="rQWUJJRmfmGj_TDPr7_M-133" value="no_instance" style="edgeLabel;html=1;align=center;verticalAlign=middle;resizable=0;points=[];" vertex="1" connectable="0" parent="rQWUJJRmfmGj_TDPr7_M-132">
          <mxGeometry x="0.254" y="1" relative="1" as="geometry">
            <mxPoint x="17" y="-1" as="offset" />
          </mxGeometry>
        </mxCell>
        <mxCell id="rQWUJJRmfmGj_TDPr7_M-115" value="SELECT_UNUSED_ERROR_CODE" style="ellipse;whiteSpace=wrap;html=1;" vertex="1" parent="1">
          <mxGeometry x="410" y="310" width="260" height="50" as="geometry" />
        </mxCell>
        <mxCell id="rQWUJJRmfmGj_TDPr7_M-122" style="edgeStyle=orthogonalEdgeStyle;rounded=0;orthogonalLoop=1;jettySize=auto;html=1;exitX=0.5;exitY=1;exitDx=0;exitDy=0;entryX=0.5;entryY=0;entryDx=0;entryDy=0;" edge="1" parent="1" source="rQWUJJRmfmGj_TDPr7_M-118" target="rQWUJJRmfmGj_TDPr7_M-121">
          <mxGeometry relative="1" as="geometry" />
        </mxCell>
        <mxCell id="rQWUJJRmfmGj_TDPr7_M-123" value="provided_suggestions" style="edgeLabel;html=1;align=center;verticalAlign=middle;resizable=0;points=[];" vertex="1" connectable="0" parent="rQWUJJRmfmGj_TDPr7_M-122">
          <mxGeometry x="-0.0531" relative="1" as="geometry">
            <mxPoint as="offset" />
          </mxGeometry>
        </mxCell>
        <mxCell id="rQWUJJRmfmGj_TDPr7_M-118" value="SUGGEST_SUSPECT_COMPONENTS" style="ellipse;whiteSpace=wrap;html=1;" vertex="1" parent="1">
          <mxGeometry x="410" y="419.5" width="260" height="50" as="geometry" />
        </mxCell>
        <mxCell id="rQWUJJRmfmGj_TDPr7_M-124" style="edgeStyle=orthogonalEdgeStyle;rounded=0;orthogonalLoop=1;jettySize=auto;html=1;exitX=1;exitY=0.5;exitDx=0;exitDy=0;entryX=1;entryY=0.5;entryDx=0;entryDy=0;" edge="1" parent="1" source="rQWUJJRmfmGj_TDPr7_M-121" target="rQWUJJRmfmGj_TDPr7_M-118">
          <mxGeometry relative="1" as="geometry">
            <Array as="points">
              <mxPoint x="720" y="555" />
              <mxPoint x="720" y="444" />
            </Array>
          </mxGeometry>
        </mxCell>
        <mxCell id="rQWUJJRmfmGj_TDPr7_M-125" value="no_anomaly" style="edgeLabel;html=1;align=center;verticalAlign=middle;resizable=0;points=[];" vertex="1" connectable="0" parent="rQWUJJRmfmGj_TDPr7_M-124">
          <mxGeometry x="-0.0065" y="2" relative="1" as="geometry">
            <mxPoint as="offset" />
          </mxGeometry>
        </mxCell>
        <mxCell id="rQWUJJRmfmGj_TDPr7_M-127" style="edgeStyle=orthogonalEdgeStyle;rounded=0;orthogonalLoop=1;jettySize=auto;html=1;exitX=0;exitY=0.5;exitDx=0;exitDy=0;entryX=1;entryY=0.5;entryDx=0;entryDy=0;" edge="1" parent="1" source="rQWUJJRmfmGj_TDPr7_M-121" target="rQWUJJRmfmGj_TDPr7_M-126">
          <mxGeometry relative="1" as="geometry" />
        </mxCell>
        <mxCell id="rQWUJJRmfmGj_TDPr7_M-128" value="detected_anomalies" style="edgeLabel;html=1;align=center;verticalAlign=middle;resizable=0;points=[];" vertex="1" connectable="0" parent="rQWUJJRmfmGj_TDPr7_M-127">
          <mxGeometry x="-0.0011" relative="1" as="geometry">
            <mxPoint as="offset" />
          </mxGeometry>
        </mxCell>
        <mxCell id="rQWUJJRmfmGj_TDPr7_M-129" style="edgeStyle=orthogonalEdgeStyle;rounded=0;orthogonalLoop=1;jettySize=auto;html=1;exitX=0.5;exitY=1;exitDx=0;exitDy=0;entryX=1;entryY=0.5;entryDx=0;entryDy=0;" edge="1" parent="1" source="rQWUJJRmfmGj_TDPr7_M-121" target="rQWUJJRmfmGj_TDPr7_M-115">
          <mxGeometry relative="1" as="geometry">
            <Array as="points">
              <mxPoint x="540" y="600" />
              <mxPoint x="790" y="600" />
              <mxPoint x="790" y="335" />
            </Array>
          </mxGeometry>
        </mxCell>
        <mxCell id="rQWUJJRmfmGj_TDPr7_M-130" value="no_anomaly_no_more_comp" style="edgeLabel;html=1;align=center;verticalAlign=middle;resizable=0;points=[];" vertex="1" connectable="0" parent="rQWUJJRmfmGj_TDPr7_M-129">
          <mxGeometry x="-0.7205" relative="1" as="geometry">
            <mxPoint x="49" as="offset" />
          </mxGeometry>
        </mxCell>
        <mxCell id="rQWUJJRmfmGj_TDPr7_M-121" value="CLASSIFY_COMPONENTS" style="ellipse;whiteSpace=wrap;html=1;" vertex="1" parent="1">
          <mxGeometry x="410" y="530" width="260" height="50" as="geometry" />
        </mxCell>
        <mxCell id="rQWUJJRmfmGj_TDPr7_M-140" style="edgeStyle=orthogonalEdgeStyle;rounded=0;orthogonalLoop=1;jettySize=auto;html=1;exitX=0.5;exitY=1;exitDx=0;exitDy=0;" edge="1" parent="1" source="rQWUJJRmfmGj_TDPr7_M-126" target="rQWUJJRmfmGj_TDPr7_M-134">
          <mxGeometry relative="1" as="geometry" />
        </mxCell>
        <mxCell id="rQWUJJRmfmGj_TDPr7_M-141" value="isolated_problem" style="edgeLabel;html=1;align=center;verticalAlign=middle;resizable=0;points=[];" vertex="1" connectable="0" parent="rQWUJJRmfmGj_TDPr7_M-140">
          <mxGeometry x="0.0035" relative="1" as="geometry">
            <mxPoint as="offset" />
          </mxGeometry>
        </mxCell>
        <mxCell id="rQWUJJRmfmGj_TDPr7_M-126" value="&lt;div&gt;ISOLATE_PROBLEM_CHECK_&lt;/div&gt;&lt;div&gt;EFFECTIVE_RADIUS&lt;/div&gt;" style="ellipse;whiteSpace=wrap;html=1;" vertex="1" parent="1">
          <mxGeometry x="60" y="419.5" width="260" height="50" as="geometry" />
        </mxCell>
        <mxCell id="rQWUJJRmfmGj_TDPr7_M-135" style="edgeStyle=orthogonalEdgeStyle;rounded=0;orthogonalLoop=1;jettySize=auto;html=1;exitX=0;exitY=0.5;exitDx=0;exitDy=0;entryX=0;entryY=0.5;entryDx=0;entryDy=0;" edge="1" parent="1" source="rQWUJJRmfmGj_TDPr7_M-131" target="rQWUJJRmfmGj_TDPr7_M-134">
          <mxGeometry relative="1" as="geometry">
            <Array as="points">
              <mxPoint x="-50" y="335" />
              <mxPoint x="-50" y="555" />
            </Array>
          </mxGeometry>
        </mxCell>
        <mxCell id="rQWUJJRmfmGj_TDPr7_M-136" value="sensor_defective" style="edgeLabel;html=1;align=center;verticalAlign=middle;resizable=0;points=[];" vertex="1" connectable="0" parent="rQWUJJRmfmGj_TDPr7_M-135">
          <mxGeometry x="-0.0052" y="-4" relative="1" as="geometry">
            <mxPoint as="offset" />
          </mxGeometry>
        </mxCell>
        <mxCell id="rQWUJJRmfmGj_TDPr7_M-138" style="edgeStyle=orthogonalEdgeStyle;rounded=0;orthogonalLoop=1;jettySize=auto;html=1;exitX=0.5;exitY=0;exitDx=0;exitDy=0;entryX=0.5;entryY=1;entryDx=0;entryDy=0;" edge="1" parent="1" source="rQWUJJRmfmGj_TDPr7_M-131" target="rQWUJJRmfmGj_TDPr7_M-137">
          <mxGeometry relative="1" as="geometry" />
        </mxCell>
        <mxCell id="rQWUJJRmfmGj_TDPr7_M-139" value="sensor_works" style="edgeLabel;html=1;align=center;verticalAlign=middle;resizable=0;points=[];" vertex="1" connectable="0" parent="rQWUJJRmfmGj_TDPr7_M-138">
          <mxGeometry x="-0.0333" y="2" relative="1" as="geometry">
            <mxPoint as="offset" />
          </mxGeometry>
        </mxCell>
        <mxCell id="rQWUJJRmfmGj_TDPr7_M-131" value="&lt;div&gt;NO_PROBLEM_DETECTED_&lt;/div&gt;&lt;div&gt;CHECK_SENSOR&lt;br&gt;&lt;/div&gt;" style="ellipse;whiteSpace=wrap;html=1;" vertex="1" parent="1">
          <mxGeometry x="60" y="310" width="260" height="50" as="geometry" />
        </mxCell>
        <mxCell id="rQWUJJRmfmGj_TDPr7_M-134" value="PROVIDE_DIAG_AND_SHOW_TRACE" style="ellipse;whiteSpace=wrap;html=1;" vertex="1" parent="1">
          <mxGeometry x="60" y="530" width="260" height="50" as="geometry" />
        </mxCell>
        <mxCell id="rQWUJJRmfmGj_TDPr7_M-137" value="&lt;div&gt;PROVIDE_FAULT_CONTEXT&lt;/div&gt;" style="ellipse;whiteSpace=wrap;html=1;" vertex="1" parent="1">
          <mxGeometry x="60" y="200" width="260" height="50" as="geometry" />
        </mxCell>
      </root>
    </mxGraphModel>
  </diagram>
</mxfile>
